<?xml version="1.0" encoding="UTF-8" standalone="no"?>
<!-- Created with Inkscape (http://www.inkscape.org/) -->

<svg
   version="1.1"
   id="svg2"
   width="640"
   height="619"
   viewBox="0 0 640 619"
   sodipodi:docname="favicon.svg"
   inkscape:version="1.2.1 (9c6d41e410, 2022-07-14)"
   xmlns:inkscape="http://www.inkscape.org/namespaces/inkscape"
   xmlns:sodipodi="http://sodipodi.sourceforge.net/DTD/sodipodi-0.dtd"
   xmlns="http://www.w3.org/2000/svg"
   xmlns:svg="http://www.w3.org/2000/svg">
  <defs
     id="defs6" />
  <sodipodi:namedview
     id="namedview4"
     pagecolor="#ffffff"
     bordercolor="#000000"
     borderopacity="0.25"
     inkscape:showpageshadow="2"
     inkscape:pageopacity="0.0"
     inkscape:pagecheckerboard="0"
     inkscape:deskcolor="#d1d1d1"
     showgrid="false"
     inkscape:zoom="0.59058838"
     inkscape:cx="511.35446"
     inkscape:cy="333.56566"
     inkscape:window-width="1366"
     inkscape:window-height="697"
     inkscape:window-x="-8"
     inkscape:window-y="-8"
     inkscape:window-maximized="1"
     inkscape:current-layer="g170" />
  <g
     inkscape:groupmode="layer"
     inkscape:label="Image"
     id="g8">
    <g
       id="g170"
       transform="translate(70.640226,-1.1972921)">
      <path
         style="fill:#fdfdfd"
         d="m -71.115521,471.19323 v -149.5 H 33.290639 137.6968 l 0.71075,5.25 c 2.09628,15.48449 10.42836,35.25405 20.48056,48.59433 38.46732,51.04999 112.58651,57.29757 159.10817,13.41139 9.6929,-9.14379 16.08346,-17.91904 22.39781,-30.75572 5.5979,-11.38019 8.82779,-21.34854 10.02689,-30.9458 l 0.69395,-5.5542 H 459.9997 568.88448 v 149.5 149.5 h -320 -320.000001 z m 299.659751,-66.4879 c -13.37126,-2.40926 -27.98007,-8.57181 -39.22169,-16.54519 -7.6741,-5.44303 -20.92385,-19.46915 -25.26858,-26.7492 -18.82383,-31.54125 -18.82383,-68.89417 0,-100.43542 4.34473,-7.28005 17.59448,-21.30617 25.26858,-26.7492 8.3707,-5.93712 18.86819,-11.02738 29.27362,-14.19486 7.93393,-2.41515 10.39242,-2.68315 25.28832,-2.75673 14.33096,-0.0708 17.52742,0.21624 24.31565,2.18345 34.69603,10.0548 59.08191,34.62672 68.29845,68.81951 2.65559,9.85207 2.65559,35.97901 0,45.83108 -9.00207,33.39714 -33.2202,58.29769 -66.33226,68.20138 -7.2735,2.17548 -11.18643,2.68164 -22.78184,2.94696 -7.7,0.17619 -16.17811,-0.0721 -18.84025,-0.55178 z m 28.78795,-41.54049 c 23.74454,-6.18467 40.5523,-27.7254 40.5523,-51.97161 0,-13.90933 -4.94419,-26.17303 -14.75848,-36.60733 -20.81516,-22.13012 -54.93343,-22.58118 -76.25619,-1.00815 -13.60245,13.76211 -18.7726,31.66543 -14.44555,50.02241 4.36816,18.53137 20.72454,35.06026 39.0943,39.50661 7.8569,1.90175 18.64212,1.92601 25.81362,0.0581 z m -22.33937,-5.55321 c -23.71503,-4.65736 -41.22694,-29.68969 -37.28182,-53.29232 4.58481,-27.42974 31.68538,-45.85311 57.54243,-39.1182 18.2472,4.75279 31.86416,18.66179 35.52935,36.29134 6.86207,33.00655 -22.5957,62.63815 -55.78996,56.11918 z"
         id="path176" />
      <path
         style="fill:#e31d24"
         d="M -71.115521,151.19323 V 1.6932267 h 320.000001 320 v 149.5000033 149.5 H 459.9997 351.11493 l -0.69395,-5.5542 c -1.82044,-14.57023 -10.76228,-35.79474 -20.44943,-48.5391 -35.88154,-47.20554 -102.79179,-56.3971 -150.27157,-20.64302 -21.72791,16.36195 -37.75071,43.32488 -41.29243,69.48632 l -0.71075,5.25 H 33.290639 -71.115521 Z"
         id="path174" />
      <path
         style="fill:#282827"
         d="m 231.88448,417.57565 c -28.33055,-3.24141 -55.59244,-18.94134 -72.99637,-42.03809 -10.0522,-13.34028 -18.38428,-33.10984 -20.48056,-48.59433 l -0.71075,-5.25 H 33.290639 -71.115521 v -10.5 -10.5 H 33.290639 137.6968 l 0.71075,-5.25 c 0.39091,-2.8875 1.80077,-9.03017 3.13304,-13.65039 18.25823,-63.3185 88.82757,-95.5853 147.9665,-67.65552 16.25232,7.67555 30.01752,18.71868 40.46446,32.46261 9.68715,12.74436 18.62899,33.96887 20.44943,48.5391 l 0.69395,5.5542 H 459.9997 568.88448 v 10.5 10.5 H 459.9997 351.11493 l -0.69395,5.5542 c -1.82044,14.57023 -10.76228,35.79474 -20.44943,48.5391 -17.84587,23.47792 -44.53675,38.46084 -74.58707,41.86943 -10.1247,1.14843 -12.84173,1.13915 -23.5,-0.0803 z m 38.42108,-15.30195 c 32.74344,-9.80299 56.64725,-34.16352 65.82281,-67.08047 2.57093,-9.2231 3.49454,-30.16032 1.7589,-39.87235 -5.79112,-32.40513 -27.68281,-59.75081 -57.34086,-71.62647 -14.3142,-5.73168 -18.72575,-6.50655 -36.66193,-6.4395 -14.97697,0.056 -17.3112,0.31044 -25.28832,2.75672 -16.10601,4.93911 -27.6778,11.69918 -39.57082,23.11669 -12.76971,12.25915 -21.68882,27.19502 -26.3138,44.06491 -3.17814,11.59245 -3.17814,36.40755 0,48 4.62498,16.86989 13.54409,31.80576 26.3138,44.06491 8.49786,8.15809 13.5877,11.78897 23.35914,16.66341 15.30808,7.63636 25.74443,9.83557 44.5,9.3773 12.14555,-0.29676 15.94857,-0.78798 23.42108,-3.02515 z m -38.787,-39.16693 c -23.09428,-5.58991 -40.68157,-28.19693 -40.6193,-52.21276 0.0623,-24.00683 17.72402,-46.15431 41.22495,-51.69521 18.60679,-4.38699 37.81686,1.3705 50.86862,15.24594 32.52714,34.57988 7.89635,90.81101 -39.49484,90.16518 -3.36243,-0.0458 -8.75318,-0.72224 -11.97943,-1.50315 z m 23.90582,-5.9452 c 25.21495,-6.47989 40.56155,-30.64195 35.35839,-55.66912 -4.99756,-24.03825 -28.86024,-40.79168 -52.81925,-37.08317 -25.90187,4.00924 -44.21274,28.33337 -40.30994,53.54764 4.22577,27.30082 31.65618,45.91574 57.7708,39.20465 z"
         id="path172" />
    </g>
  </g>
</svg>
